#N canvas 204 468 2928 1044 10;
#X obj 315 10 ctlin;
#X obj 315 164 s event;
#X obj 315 40 pack f f f;
#X obj 1222 15 bng 15 250 50 0 empty empty empty 17 7 0 10 #fcfcfc
#000000 #000000;
#X obj 1228 106 pack f f f;
#X obj 1233 41 t b b b;
#X obj 1234 74 4;
#X obj 315 69 t b l;
#X symbolatom 315 132 21 0 0 0 - - - 0;
#X msg 342 101 set ctlin\\\ \$1\\\ \$2\\\ \$3;
#X obj 1276 76 7;
#X obj 1314 74 + 1;
#X obj 1341 109 i;
#N canvas 1524 775 1141 759 scroller 1;
#X obj 22 15 r event, f 14;
#X msg 152 211 set \$1;
#X symbolatom 25 143 18 0 0 0 - - - 0;
#X symbolatom 26 188 19 0 0 0 - - - 0;
#X symbolatom 29 229 18 0 0 0 - - - 0;
#X msg 152 168 set \$1;
#X msg 152 126 set \$1;
#X obj 22 47 t s b b b, f 14;
#X symbolatom 223 161 20 0 0 0 - - - 0;
#X symbolatom 224 205 20 0 0 0 - - - 0;
#X symbolatom 225 241 20 0 0 0 - - - 0;
#X symbolatom 222 119 20 0 0 0 - - - 0;
#X msg 392 151 \; screenLine1 \$1;
#X msg 393 195 \; screenLine2 \$1;
#X msg 395 240 \; screenLine3 \$1;
#X msg 395 279 \; screenLine4 \$1;
#X obj 400 12 loadbang;
#X msg 400 43;
#X connect 0 0 7 0;
#X connect 1 0 4 0;
#X connect 2 0 5 0;
#X connect 2 0 8 0;
#X connect 3 0 1 0;
#X connect 3 0 9 0;
#X connect 4 0 10 0;
#X connect 5 0 3 0;
#X connect 6 0 2 0;
#X connect 7 0 11 0;
#X connect 7 1 2 0;
#X connect 7 2 3 0;
#X connect 7 3 4 0;
#X connect 8 0 13 0;
#X connect 9 0 14 0;
#X connect 10 0 15 0;
#X connect 11 0 6 0;
#X connect 11 0 12 0;
#X connect 16 0 17 0;
#X connect 17 0 12 0;
#X connect 17 0 13 0;
#X connect 17 0 15 0;
#X restore 387 375 pd scroller;
#X obj 51 360 s event;
#X obj 51 241 pack f f f;
#X obj 51 274 t b l;
#X symbolatom 51 333 21 0 0 0 - - - 0;
#X msg 78 302 set notein\\\ \$1\\\ \$2\\\ \$3;
#X obj 51 211 notein;
#X obj 48 166 s event;
#X obj 48 47 pack f f f;
#X obj 48 80 t b l;
#X symbolatom 48 139 21 0 0 0 - - - 0;
#X msg 75 108 set notes\\\ \$1\\\ \$2\\\ \$3;
#X obj 48 17 r notes;
#X connect 0 0 2 0;
#X connect 0 1 2 1;
#X connect 0 2 2 2;
#X connect 2 0 7 0;
#X connect 3 0 5 0;
#X connect 4 0 7 0;
#X connect 5 0 6 0;
#X connect 5 1 10 0;
#X connect 5 2 11 0;
#X connect 6 0 4 0;
#X connect 7 0 8 0;
#X connect 7 1 9 0;
#X connect 8 0 1 0;
#X connect 9 0 8 0;
#X connect 10 0 4 1;
#X connect 11 0 4 2;
#X connect 11 0 12 0;
#X connect 12 0 11 0;
#X connect 15 0 16 0;
#X connect 16 0 17 0;
#X connect 16 1 18 0;
#X connect 17 0 14 0;
#X connect 18 0 17 0;
#X connect 19 0 15 0;
#X connect 19 1 15 1;
#X connect 19 2 15 2;
#X connect 21 0 22 0;
#X connect 22 0 23 0;
#X connect 22 1 24 0;
#X connect 23 0 20 0;
#X connect 24 0 23 0;
#X connect 25 0 21 0;
